<svg xmlns="http://www.w3.org/2000/svg" xmlns:xlink="http://www.w3.org/1999/xlink" version="1.1" x="0px" y="0px" viewBox="0 0 240 28.79" enable-background="new 0 0 240 28.79" xml:space="preserve">
    <g>
        <g fill="#ffffff">
            <rect x="0.03" y="4.88" width="103.07" height="0.76" />
            <rect x="136.93" y="4.89" width="103.07" height="0.76" />
            <path d="M13.57,15.49c0-1.83-3.22-2.32-3.22-2.32s2.79-.36,2.79-2.1c0-2.06-3.67-2.16-3.67-2.16H0v.34H.44l1.26,1.26v6.09L.62,17.72H0V18H9.14S13.57,18.18,13.57,15.49Zm-2-1.08L9.28,16.76a5.89,5.89,0,0,0,.11-.59l1.95-1.95Zm-.5-.33L9.43,15.75a2,2,0,0,0,0-.26c0-.08,0-.14,0-.2l1.36-1.34Zm-.66-.27-1.06,1a1.55,1.55,0,0,0-.09-.36l.8-.8A2.09,2.09,0,0,1,10.44,13.81Zm-1.3.33A1.52,1.52,0,0,0,9,13.85l.34-.33.39.07Zm2.29-2.29a2,2,0,0,1-.74.75,3.38,3.38,0,0,1-.82.34l1.73-1.73A1.3,1.3,0,0,1,11.43,11.85Zm.17-1L9.33,13.08a4.94,4.94,0,0,1-.55.08l2.7-2.71A1.85,1.85,0,0,1,11.6,10.8ZM8.93,13.47l-.17.17a1.31,1.31,0,0,0-.32-.22Zm2.37-3.3L9,12.5a3.32,3.32,0,0,0,.16-.63l1.94-1.94A.76.76,0,0,1,11.3,10.17Zm-.51-.42L9.16,11.37a1.62,1.62,0,0,0,0-.24,1.53,1.53,0,0,0,0-.23l1.32-1.32A2,2,0,0,1,10.78,9.74Zm-1-.36a2.76,2.76,0,0,1,.38.1l-1.06,1c0-.14-.06-.26-.08-.38Zm-.34-.07-.55.53a1.56,1.56,0,0,0-.46-.59A5.77,5.77,0,0,1,9.46,9.31ZM5.73,9.25H7.47s1.33,0,1.33,1.91-1,1.92-1,1.92H5.73Zm-2.2,0L2.07,10.71v-.47l1-1Zm-2.62,0h.83l-.42.41Zm.63.63.64-.63h.47l-.87.87Zm2.7,7.84H3.82l.42-.42Zm0-.87-.87.87H2.9l1.33-1.33Zm0-.91L2.46,17.72H2l2.24-2.25Zm0-.92-2.7,2.7H1.08l3.15-3.17Zm0-.92L2.07,16.27V15.8l2.16-2.17Zm0-.91L2.07,15.36v-.47l2.16-2.17Zm0-1L2.07,14.39v-.48l2.16-2.16Zm0-.94L2.07,13.43V13L4.24,10.8Zm0-.87L2.07,12.58v-.47L4.24,9.94Zm0-1L2.07,11.58v-.46L3.94,9.25h.3Zm3.54,8.3h-2V13.43H7.55a1.77,1.77,0,0,1,1.53,2C9.08,17.54,7.78,17.72,7.78,17.72Zm1.5-.06c-.32,0-.48,0-.48,0l3-3a1.91,1.91,0,0,1,.18.27ZM11,17.29l1.09-1.09A1.91,1.91,0,0,1,11,17.29Zm1.2-1.64-1.86,1.86c-.22,0-.39.08-.58.1l2.4-2.39a1.79,1.79,0,0,1,0,.35Z" />
            <path d="M20.47,16.59V13.46h.72L23.91,18h5.92v0h4.7v-.33h-.64l-1.44-1.75.3-.48h4.86l.89,1.38-.83.85h-.5V18H44.7v0h8c3.87,0,6.35-2.12,6.35-4.74,0-3.12-3.44-4.37-5.74-4.37H44.7v.32H45l1.36,1.34V16.7l-1,1h-.52v0h-.75L43,16.82,38.17,8.89H36.28l-4.17,7-1.77,1.8h-.68v0H29l-1.51-1L26,14.15a7.18,7.18,0,0,1-3.88-.66c2.18,0,5.71-.35,5.71-2.41s-3.66-2.16-3.66-2.16H14.74v.34h.44l1.26,1.26v6.09l-1.1,1.1h-.6V18h7.32v-.31H21.6ZM48.94,17.7H48.5l.43-.43Zm0-.82-.82.82h-.48l1.3-1.3Zm0-.88-1.7,1.7h-.47l2.16-2.16Zm0-1.85-2.22,2.22V15.9l2.22-2.23Zm0-.9-2.22,2.22V15l2.22-2.23Zm0-.91-2.22,2.23v-.48l2.22-2.23Zm0-.9-2.22,2.23v-.48L48.94,11Zm0-.95-2.22,2.22v-.48L48.94,10Zm5.94,7,2.28-2.28A3.41,3.41,0,0,1,54.88,17.5Zm2.43-2.86-3,3a3.8,3.8,0,0,1-.55.07l3.63-3.62C57.38,14.28,57.34,14.46,57.31,14.64Zm.13-1.33v.32l-3.8,3.79a2.75,2.75,0,0,0,.48-1l3.33-3.31Zm0-.56-3.13,3.12c0-.19.08-.39.11-.59l2.95-2.95C57.36,12.45,57.39,12.6,57.41,12.75ZM57.25,12l-2.79,2.79c0-.17,0-.35,0-.52l2.62-2.62C57.17,11.74,57.2,11.85,57.25,12ZM57,11.32l-2.46,2.46V13.3L56.8,11A1.57,1.57,0,0,1,57,11.32Zm-.36-.56-2.1,2.1c0-.14,0-.3,0-.46l1.9-1.89A1.58,1.58,0,0,1,56.61,10.76Zm-.46-.47L54.45,12a2.64,2.64,0,0,0-.06-.42l1.49-1.48C56,10.15,56.07,10.21,56.16,10.29Zm-.53-.38-1.29,1.3a2.61,2.61,0,0,0-.09-.41l1.07-1A1.6,1.6,0,0,1,55.62,9.91ZM55,9.62l-.88.89a2.58,2.58,0,0,0-.13-.35l.66-.66Zm-.69-.23-.44.46a2.39,2.39,0,0,0-.48-.61A5.46,5.46,0,0,1,54.35,9.39Zm-3.93-.16h2.14c1.12,0,1.64,2,1.64,4.4,0,1.78-.5,4.08-1.64,4.08H50.42Zm-1.48,0v.32l-2.22,2.22V11.3l2.06-2.07Zm-.52,0-1.7,1.7v-.48l1.21-1.22Zm-2.92,0h1.16l-.58.58Zm.76.76L47,9.23h.48l-1,1Zm2.68,4.64v.48l-2.6,2.6h-.48Zm-6.86,2.8.36.24h-.6Zm-.27-.18-.42.42h-.5L41.5,17Zm-.44-.46-.88.88H40l1.2-1.18ZM41,16.23l-1.45,1.43h-.49l1.75-1.74Zm-.35-.59-2,2h-.49l2.33-2.33Zm-.33-.56-1.56,1.55-.18-.32,1.55-1.55ZM40,14.52l-1.56,1.55-.18-.31,1.56-1.55ZM39.67,14l-1.55,1.56-.19-.31,1.56-1.56Zm-.36-.6L37.76,14.9l-.18-.32L39.13,13ZM39,12.8l-1.57,1.56L37.24,14l1.57-1.56Zm-.33-.56-1.58,1.57-.18-.32,1.58-1.56Zm-.35-.57-1.56,1.56-.19-.3,1.57-1.58ZM38,11.09l-1.58,1.58-.18-.31,1.58-1.58Zm-.35-.58-1.57,1.57-.19-.31,1.58-1.57ZM36.42,9.27h.46l.06.06-1.35,1.36Zm.68.35.18.31L35.7,11.51l-.18-.31Zm-1.88,1.65,2.25,3.82H33Zm-2.85,6.17-.23.23h-.49l.64-.65Zm-.2-1.2.08.43-1,1h-.5Zm-4.65,1.47H26.45l.46-.46Zm-.87-.64-.64.64h-.47l.84-.84Zm-.5-.38-1,1h-.47l1.21-1.22Zm-.46-.46-1.47,1.47h-.32v-.15l1.61-1.62Zm-.52-.84.18.29L23.84,17.2l-.17-.3ZM25,15.13,23.5,16.64l-.17-.28,1.5-1.5Zm-.4-.64.06.09-1.5,1.5L23,15.8l1.34-1.34ZM24,14.4l-1.13,1.14-.17-.3.9-.92Zm-.74-.16-.73.73-.17-.3.54-.53ZM22.53,14l-.38.38-.48-.79A3,3,0,0,0,22.53,14Zm2.56-1.28,1.43-1.43C26.47,11.76,26.19,12.39,25.09,12.76Zm1.45-1.94v.09l-2,2L24,13l2.48-2.5A1.09,1.09,0,0,1,26.54,10.83Zm-.26-.55-2.79,2.8-.36,0a1.75,1.75,0,0,0,.64-.79L26,10A1.1,1.1,0,0,1,26.28,10.28Zm-.48-.43-1.87,1.87c0-.15,0-.33,0-.5l1.51-1.53C25.61,9.73,25.71,9.8,25.8,9.85Zm-.63-.3L24,10.77a3.27,3.27,0,0,0-.06-.4l.92-.93Zm-.72-.19-.67.67a2.8,2.8,0,0,0-.16-.32l.43-.42Zm-1.2-.14a2.24,2.24,0,0,1,.4,0l-.22.2a2.93,2.93,0,0,0-.3-.25Zm-2.79,0h1.74s1.42-.14,1.42,1.91c0,1.68-1.09,1.92-1.09,1.92H20.47ZM19,9.25v.16L16.8,11.58v-.46l1.87-1.87Zm-2.17,6.1v-.48L19,12.72v.47ZM19,13.63v.47L16.8,16.27V15.8Zm-2.17.76v-.48L19,11.75v.47Zm0-1V13L19,10.8v.47Zm0-.85v-.47L19,9.94v.47Zm1.46-3.32L16.8,10.71v-.47l1-1Zm-2.61,0h.82l-.41.41Zm.63.63.63-.63h.48l-.87.87Zm-.47,7.84L19,14.55V15l-2.7,2.7Zm.92,0L19,15.46v.47L17.2,17.72Zm.91,0L19,16.38v.47l-.87.87Zm.81,0,.76-.76.24.23-.52.53Zm1,0,.27-.28.27.28Z" />
            <path d="M59.86,9.27h.47l1.13,1.13v6.2l-1.14,1.14h-.46V18h7.37v-.3h-.65l-1.11-1.11V13.48h.27l1.9,1.91H69V11.21H67.61l-1.86,1.87h-.27V9.27h2.23l2.81,2.81H72V8.91H59.86Zm7.65,5.5-.2-.2.2-.2Zm0-.77-.4.38-.23-.23.63-.6Zm0-.89-.83.83-.23-.23,1.06-1.06Zm0-1.3v.42l-1.28,1.26-.2-.2Zm3.09-.08-.43-.42.43-.43Zm0-1.31-.66.66-.23-.23L70.6,10Zm0-1.15v.27l-1.09,1.09-.26-.26,1.09-1.1Zm-.6,0-.93.92L68.84,10l.71-.71Zm-.89,0-.49.49-.48-.49Zm-8.2,8.4L64,14.58V15l-2.65,2.64ZM64,10.89v.46L61.87,13.5v-.44Zm-2.15,1.66V12.1L64,9.94v.46ZM64,11.77v.46l-2.15,2.16v-.46Zm0,.93v.46l-2.15,2.15v-.46Zm0,.9v.46l-2.15,2.16v-.46ZM61.8,17.69,64,15.47v.46l-1.77,1.77Zm.89,0L64,16.39v.46l-.88.88Zm2.33,0h-.51l.25-.27Zm-.5-.5-.5.5h-.46l.73-.73Zm-.5-8v.23l-2.15,2.15V11.2l1.92-1.94Zm-.67,0-1.48,1.48V10.3l1-1Zm-.89,0-.83.84-.23-.23.6-.61Zm-.87,0-.41.4-.41-.4Z" />
            <path d="M80.15,8.72c-7.06,0-7.06,4.7-7.06,4.7s0,4.77,7.06,4.77,6.92-4.77,6.92-4.77S87.07,8.72,80.15,8.72Zm5.09,4.1-2.47,2.47c0-.16,0-.32,0-.51l2.36-2.36C85.18,12.55,85.22,12.72,85.24,12.82Zm-.17-.69-2.26,2.22c0-.16,0-.3,0-.47l2.1-2.11A3.17,3.17,0,0,1,85.07,12.12Zm-.27-.61-2,1.95c0-.14,0-.33,0-.48l1.79-1.79A1.3,1.3,0,0,1,84.8,11.51Zm-.38-.58-1.61,1.62c0-.14,0-.33,0-.44l1.43-1.45A2.37,2.37,0,0,1,84.42,10.93Zm-.4-.47-1.26,1.26-.07-.42,1.08-1.08ZM83.54,10l-.93.93a2.2,2.2,0,0,0-.09-.39l.73-.73C83.35,9.9,83.45,10,83.54,10ZM83,9.69l-.57.58a1.9,1.9,0,0,0-.15-.33l.39-.41Zm-.62-.28-.27.26a1.76,1.76,0,0,0-.42-.49A6.28,6.28,0,0,1,82.38,9.4Zm-6.22.34L73.72,12.2A4.6,4.6,0,0,1,76.16,9.74Zm-2.64,3.13,3.43-3.44c.18-.06.41-.11.63-.16L73.45,13.4A2.86,2.86,0,0,1,73.52,12.88Zm0,1,3.14-3.15a4.54,4.54,0,0,0-.28.76l-2.78,2.76C73.56,14.08,73.52,13.95,73.5,13.84Zm.17.67L76.21,12a3.46,3.46,0,0,0-.09.57l-2.31,2.29A2.47,2.47,0,0,1,73.67,14.52Zm.27.63L76.07,13v.48l-1.94,1.94Zm.38.55,1.76-1.77c0,.11,0,.26,0,.42l-1.61,1.59Zm.43.49,1.43-1.46c0,.1.06.26.08.39L75,16.38A1.91,1.91,0,0,1,74.75,16.18Zm.47.38,1.14-1.16c.06.13.09.25.14.36l-1,1Zm.54.36.87-.85a1.59,1.59,0,0,0,.14.32l-.68.69A2.79,2.79,0,0,1,75.75,16.92Zm.58.27.57-.57a1.46,1.46,0,0,0,.18.3l-.42.42Zm.67.25.25-.27a2.36,2.36,0,0,0,.34.42A5.52,5.52,0,0,1,77,17.44Zm3.14.46c-2,0-2.41-2-2.41-4.48S77.74,9,80.15,9c2.08,0,2.37,2.32,2.37,4.38C82.52,17.9,81.59,17.9,80.15,17.9Zm2.61-.35L85,15.34A4.24,4.24,0,0,1,82.76,17.54Zm2.41-2.8-2.93,2.93-.26.08a4.52,4.52,0,0,0,.5-.79l2.8-2.79C85.25,14.34,85.22,14.54,85.17,14.74Zm-2.55,1.63c0-.17.06-.36.09-.56l2.58-2.57c0,.13,0,.31,0,.43Z" />
            <path d="M100.2,16.71l-1.47-2.56a7.18,7.18,0,0,1-3.88-.66c2.18,0,5.71-.35,5.71-2.41s-3.66-2.16-3.66-2.16H87.42v.34h.44l1.26,1.26v6.09L88,17.72h-.6V18h7.32v-.31h-.47l-1.13-1.13V13.46h.72L96.59,18h5.92v-.31h-.8ZM91.66,9.25v.16l-2.17,2.16v-.46l1.87-1.87Zm-2.17,6.1v-.48l2.17-2.16v.47Zm2.17-1.73v.47l-2.17,2.18V15.8Zm-2.17.76v-.48l2.17-2.16v.47Zm0-1V13l2.17-2.17v.47Zm0-.85v-.47l2.17-2.18v.47Zm1.46-3.32-1.46,1.46v-.47l1-1Zm-2.61,0h.82l-.41.41Zm.63.63.63-.63h.48l-.87.87Zm-.47,7.84,3.17-3.17V15L89,17.72Zm.92,0,2.24-2.25v.47l-1.78,1.79Zm.91,0,1.33-1.33v.47l-.87.87Zm.81,0L91.9,17l.24.23-.52.53Zm1,0,.27-.28.27.28Zm5.66-5,1.43-1.43C99.15,11.76,98.87,12.39,97.77,12.76Zm1.45-1.94v.09l-2,2-.57.11,2.48-2.5A1.09,1.09,0,0,1,99.22,10.83ZM99,10.28l-2.79,2.8-.36,0a1.75,1.75,0,0,0,.64-.79L98.73,10A1.1,1.1,0,0,1,99,10.28Zm-.48-.43-1.87,1.87c0-.15,0-.33,0-.5l1.51-1.53C98.28,9.73,98.39,9.8,98.48,9.85Zm-.63-.3-1.22,1.22a3.28,3.28,0,0,0-.06-.4l.92-.93Zm-.72-.19-.67.67a2.81,2.81,0,0,0-.16-.32l.43-.42Zm-1.2-.14a2.24,2.24,0,0,1,.4,0l-.22.2a2.93,2.93,0,0,0-.3-.25Zm-2.79,3.87V9.25h1.74s1.42-.14,1.42,1.91c0,1.68-1.09,1.92-1.09,1.92Zm1.21.54a3,3,0,0,0,.85.41l-.38.38Zm.64,1,.54-.53.36.1-.73.73Zm.34.57.9-.92.4.08-1.13,1.14Zm.33.56L97,14.46l.28,0,.06.09-1.5,1.5Zm.34.56,1.5-1.5.18.27-1.51,1.51Zm.51.84-.17-.3,1.5-1.5.18.29Zm.07.51v-.15l1.61-1.62.18.3-1.47,1.47Zm.77,0,1.21-1.22.26.21-1,1Zm.87,0,.84-.84.26.2-.64.64Zm.9,0,.46-.46.62.46Z" />
            <path d="M117.85,13.29c0-3.12-3.44-4.37-5.74-4.37h-8.61v.32h.34l1.36,1.34V16.7l-1,1h-.68V18h8C115.37,18,117.85,15.9,117.85,13.29Zm-4.17,4.21L116,15.22A3.41,3.41,0,0,1,113.69,17.5Zm2.43-2.86-3,3a3.8,3.8,0,0,1-.55.07l3.63-3.62C116.18,14.28,116.15,14.46,116.11,14.64Zm.12-1.33v.32l-3.8,3.79a2.75,2.75,0,0,0,.48-1l3.33-3.31Zm0-.56-3.13,3.12c0-.19.08-.39.11-.59l2.95-2.95C116.17,12.45,116.19,12.6,116.22,12.75Zm-.16-.77-2.79,2.79c0-.17,0-.35,0-.52l2.62-2.62C116,11.74,116,11.85,116.06,12Zm-.27-.66-2.46,2.46V13.3L115.6,11A1.57,1.57,0,0,1,115.78,11.32Zm-.36-.56-2.1,2.1c0-.14,0-.3,0-.46l1.9-1.89A1.58,1.58,0,0,1,115.42,10.76Zm-.46-.47L113.25,12a2.76,2.76,0,0,0-.06-.42l1.49-1.48C114.78,10.15,114.87,10.21,115,10.29Zm-.54-.38-1.29,1.3a2.61,2.61,0,0,0-.09-.41l1.07-1A1.58,1.58,0,0,1,114.43,9.91Zm-.58-.3-.88.89a2.52,2.52,0,0,0-.12-.35l.66-.66Zm-.69-.23-.44.46a2.39,2.39,0,0,0-.48-.61A5.45,5.45,0,0,1,113.15,9.39Zm-5.93-.16-1.7,1.7v-.48l1.21-1.22Zm-2.92,0h1.16l-.58.58Zm.76.76.76-.76h.48l-1,1Zm2.68,7.71h-.43l.43-.43Zm0-.82-.82.82h-.48l1.3-1.3Zm0-.88L106,17.7h-.47l2.16-2.16Zm0-.9-2.6,2.6h-.48l3.08-3.07Zm0-.95-2.22,2.22V15.9l2.22-2.23Zm0-.9-2.22,2.22V15l2.22-2.23Zm0-.91-2.22,2.23v-.48l2.22-2.23Zm0-.9-2.22,2.23v-.48L107.74,11Zm0-.95-2.22,2.22v-.48L107.74,10Zm0-1-2.22,2.22V11.3l2.06-2.07h.16Zm1.48,8.15V9.23h2.14c1.12,0,1.64,2,1.64,4.4,0,1.78-.5,4.08-1.64,4.08Z" />
            <path d="M138.46,14.64H137l-3.1,3.11h-2.73V13.51h.25l2,2h1.41V11.17h-1.41l-2,2h-.25V9.27h3l2.8,2.81h1.49V9h-13v.35H126l1.14,1.13v6.24l-1.06,1.06h-.63v.33h13Zm-5.1.28-.28-.28.28-.3Zm0-1-.49.49-.23-.23.72-.72Zm0-.94-1,1-.23-.23,1.18-1.18Zm0-1.31v.46L132,13.54l-.23-.23Zm3.61-.07-.43-.43.43-.42Zm0-1.31-.66.65-.23-.23.89-.88Zm0-1v.16l-1.09,1.09-.23-.23,1-1Zm-.73,0-.81.82-.23-.23.58-.59Zm-.89,0-.36.36-.36-.36Zm-6.38,0-1.49,1.5v-.46l1-1Zm-2.57,0h.81l-.41.41Zm.62.63.62-.63h.47l-.85.85Zm2.64,7.86h-.46l.46-.44Zm0-.88-.88.88h-.46l1.33-1.33Zm0-.9-1.78,1.78h-.46l2.23-2.23Zm0-.88L127,17.75h-.45l3.12-3.11Zm0-1-2.18,2.18v-.46l2.18-2.18Zm0-.91-2.18,2.18V14.9l2.18-2.18Zm0-.93-2.18,2.18V14l2.18-2.16Zm0-.88-2.18,2.18v-.46l2.18-2.19Zm0-1-2.18,2.17v-.46l2.18-2.17Zm0-.9-2.18,2.18v-.46l1.95-2h.23ZM137,17.75h-.68l.68-.68Zm0-1.14-1.13,1.14h-.46L137,16.17Zm0-1-2.12,2.11h-.46L137,15.19Z" />
            <path d="M146.44,17.64V18H155v-.39h-.49l-1.54-1-3.88-4.09,2.08-1.92L153,9.27h.77V8.91h-4.87v.35h.49l1.28,1.33-1.82,1.66L146.71,10l.65-.73h.51V8.91H140v.35h.57l1,.73,3.76,3.91-2.06,1.86-2.68,1.88H140V18h5.52v-.39H145l-1.45-1.56,2-1.86,2.33,2.39-.87,1Zm4.42-7.29-.21-.22.44-.44Zm-1-1.08h.46l-.23.23Zm.66.68-.24-.25.43-.43h.46Zm-9.28,7.69,1.49-1-1,1Zm1,0,1.08-1.08.08.41-.67.67Zm.89,0,.3-.3.08.3Zm9.44,0h-.67l.27-.26Zm-.65-.41-.42.41h-.49l.62-.62Zm-.55-.35-.76.76H150l1-1Zm-.52-.38-1.14,1.14h-.5l1.41-1.39Zm-.42-.46-1.62,1.59h-.49l1.86-1.86Zm-1.12-1.18.24.26-1.29,1.29-.24-.25Zm-7.74-5.3-.39-.3h.68Zm.22.16.47-.46h.49l-.67.67Zm.49.4.85-.85h.49l-1.1,1.1Zm.43.46,1.31-1.31h.49l-1.56,1.55Zm.46.47,1.79-1.78h.49l-2,2Zm.44.47,1.32-1.32.24.25-1.31,1.32ZM144,12l1.31-1.31.24.26-1.3,1.3Zm.46.47,1.31-1.29.23.25-1.29,1.3Zm.68.72-.24-.26,1.29-1.29.24.26Zm.21.19,1.28-1.28.24.26-1.28,1.28Zm.43.46L147,12.56l.24.25L146,14.08Zm.4.51,1.3-1.31.24.25-1.31,1.31Zm.43.44,1.31-1.3.24.24L146.85,15Zm.44.46,1.31-1.3.23.24-1.3,1.31Zm.71.72-.25-.25,1.3-1.3.24.25Zm1.93-.61.24.25-2.05,2.05h-.49Z" />
            <path d="M161.16,9a5.19,5.19,0,0,1,4,3.11h1.53V8.81h-1.63L164,9.93a4.76,4.76,0,0,0-3.29-1.24c-3.54,0-6.29,2-6.29,5.06,0,1.74,1.55,4.6,6.86,4.6,3.49,0,5.72-2,5.55-3.82l-1.46-.65a3.23,3.23,0,0,1,.15,1.45c0,.27.2,2.69-4.24,2.69-.87,0-2.06-.43-2.06-4.85C159.19,9.44,160.18,9,161.16,9Zm4.33,2.85a6.37,6.37,0,0,0-.41-.68l.41-.44Zm0-1.58-.61.62-.21-.25.82-.81Zm-.17-1.15h.17V9.4l-1,1-.22-.26Zm.68,5.34.39.19-.57.58a3.31,3.31,0,0,0,0-.58Zm-.22,1.16.69-.72a2.1,2.1,0,0,1-.91,1.54A4.5,4.5,0,0,0,165.78,15.64Zm-8.18-6-2.68,2.7A5,5,0,0,1,157.6,9.65ZM154.78,13l3.6-3.59a2.78,2.78,0,0,1,.6-.15l-4.24,4.24A2.4,2.4,0,0,1,154.78,13Zm0,1,3.45-3.46a4.31,4.31,0,0,0-.27.72l-3.11,3.12C154.79,14.17,154.78,14,154.76,13.93Zm.16.75,2.88-2.88c0,.16-.06.35-.08.53L155,15A2.2,2.2,0,0,1,154.92,14.69Zm.44,1a1.09,1.09,0,0,1-.2-.3l2.52-2.48c0,.14,0,.3,0,.47Zm.17.27,2.11-2.12a3.28,3.28,0,0,0,0,.43l-1.95,1.94Zm.42.48,1.74-1.76c0,.11,0,.24.07.4l-1.58,1.57C156.18,16.54,156,16.46,156,16.39Zm.46.4,1.42-1.4c0,.13.06.24.09.36L156.7,17C156.61,16.93,156.53,16.86,156.41,16.79Zm.57.34,1-1c0,.1.08.22.13.33l-.85.87Zm.62.28.73-.72a2.66,2.66,0,0,1,.18.28l-.57.56Zm1.86.43a10.31,10.31,0,0,1-1.21-.23l.42-.43A2.46,2.46,0,0,0,159.45,17.85Z" />
            <path d="M168.4,17.76h-.47v.32h7.38v-.32h-.65l-1.1-1.1V13.48h4v3.14l-1.14,1.14h-.47v.32h7.38V18H188v-.33h-.64L186,15.92l.3-.48h4.86l.89,1.38-.83.85h-.5V18h7.57v0h5.23v-.34h-.68L201,15.86V11.45L208.1,18h2.1V10.76l1.53-1.54h.46V8.91h-4.52v.33h.59l1.55,1.54v3.56l-5.88-5.43H198v.33h.47l2.07,1.83v4.78l-1.81,1.82h-1.15l-1.16-.85-4.78-7.93h-1.89l-4.17,7-1.77,1.8h-.68v.09h-.51l-1.12-1.1V10.47l1.19-1.18h.55V8.95h-7.35V9.3h.48l1.13,1.13v2.67h-4V10.36l1.07-1.07h.65V8.95h-7.35V9.3h.49l1.13,1.13v6.2Zm32.53-.35-.3.29h-.44l.74-.73Zm8.88.29h-.75l.75-.74Zm-1.12-8.48h.66l-.34.33Zm.51.52.54-.52h.44l-.75.75Zm.43.43.41-.42v.46l-.19.18Zm.17,6.1v.22l-1.22,1.21h-.26l-.1-.08,1.46-1.46Zm-.34-.32L208,17.41l-.24-.22,1.46-1.46Zm-.45-.41L207.57,17l-.24-.22,1.46-1.46Zm-.49-.44-1.46,1.46-.24-.21,1.46-1.46Zm-.48-.43-1.46,1.46-.24-.22,1.46-1.46Zm-.49-.44-1.46,1.46-.23-.2L207.34,14Zm-.48-.43-1.46,1.46-.24-.22,1.46-1.45Zm-.48-.43-1.46,1.46-.24-.23,1.46-1.45Zm-.48-.43-1.46,1.46-.24-.2,1.46-1.46Zm-.48-.43-1.46,1.46-.24-.22,1.46-1.46Zm-.49-.44-1.46,1.46-.24-.22,1.46-1.45Zm-.47-.42-1.46,1.46-.23-.22,1.46-1.46ZM204,11l.24.22-1.46,1.45-.24-.2Zm-.21-.19-1.46,1.46L202.1,12l1.45-1.46Zm-.5-.44-1.46,1.46-.23-.23,1.46-1.45Zm-.47-.43-1.46,1.46-.23-.2,1.45-1.46Zm-.49-.44-1.46,1.46-.24-.22,1.46-1.46ZM199,9.21h.89l-.42.42Zm.68.63.62-.63h.45l-.83.84Zm.72.65-.24-.22,1.06-1.06h.46Zm.56,5.61v.46l-1.15,1.14h-.46Zm-5.36,1.33.36.24h-.6Zm-.27-.18-.42.42h-.5L195,17Zm-.44-.46-.88.88h-.5l1.2-1.18Zm-.33-.56-1.45,1.43h-.49l1.75-1.74Zm-.35-.59-2,2h-.49L194,15.34Zm-.33-.56-1.56,1.55-.18-.32,1.55-1.55Zm-.34-.57-1.56,1.55-.18-.31,1.56-1.55Zm-.33-.56-1.55,1.56-.19-.31L193,13.65Zm-.36-.6-1.55,1.55-.18-.32L192.63,13Zm-.32-.56-1.57,1.56-.18-.31,1.57-1.56Zm-.33-.56-1.58,1.57-.18-.32L192,11.93Zm-.35-.57-1.56,1.56-.19-.3,1.57-1.58Zm-.33-.58-1.58,1.58-.18-.31,1.58-1.58Zm-.35-.58-1.57,1.57-.19-.31,1.58-1.57Zm-1.21-1.24h.45l.06.06-1.35,1.36Zm.68.35.18.31-1.58,1.58L189,11.2Zm-1.88,1.65L191,15.08h-4.52Zm-2.85,6.17-.23.23h-.49l.64-.65Zm-.2-1.2.08.43-1,1h-.5Zm-7.8,1.48,2.22-2.22V16l-1.78,1.77Zm.89,0,1.33-1.33v.46l-.88.88Zm.87,0,.74-.73.23.23-.5.5Zm.47-6v.46l-2.15,2.16V14Zm-2.15,1.73v-.44l2.15-2.16v.46Zm2.15-.8v.46l-2.15,2.15v-.46Zm0,.9v.46l-2.15,2.16V15.8Zm.48,4.12.26-.27.26.27Zm.65-8.46-3.28,3.29v-.46l2.83-2.84Zm-.9,0-2.38,2.38v-.44l1.93-1.94Zm-.9,0-1.48,1.48v-.44l1-1Zm-2.57,0h.82l-.41.4Zm.63.62.6-.62h.46l-.83.84Zm2.62,4.7v.44l-2.65,2.64H177Zm-10.22,3.11,2.23-2.22V16l-1.78,1.77Zm.9,0,1.33-1.33v.46l-.88.88Zm.88,0,.73-.73.23.23-.5.5Zm.45-6v.46L170,14.42V14ZM170,13.54v-.44l2.16-2.16v.46Zm2.16-.8v.46L170,15.35v-.46Zm0,.9v.46L170,16.26V15.8Zm.47,4.12.26-.27.27.27Zm.66-8.46L170,12.59v-.46l2.83-2.84Zm-.9,0L170,11.68v-.44l1.94-1.94Zm-.91,0L170,10.78v-.44l1-1Zm-2.56,0h.81l-.41.4Zm.62.62.61-.62h.46l-.84.84Zm2.63,4.7v.44l-2.65,2.64H169Z" />
            <path d="M225.25,17.56V15.37a1.25,1.25,0,0,1,1.29-1.24v-.27h-6.37v.39c.75,0,1.21,1,1.21,1.46,0,1.54-.17,2.32-2.57,2.32-1.48,0-1.91-2.2-1.91-4.38s.17-4.38,1.91-4.38c3.11,0,4.46,3,4.46,3h1.4V8.9H223L221.87,10A5.1,5.1,0,0,0,218.8,8.9c-5.33,0-6.73,2.92-6.73,4.74,0,2.33,1.92,4.74,6.73,4.74,1.64,0,4.29-.9,5.34-.9S225.25,17.56,225.25,17.56ZM223.47,12l-.23-.38.23-.22Zm0-1-.38.36-.2-.27.58-.57Zm0-.85-.75.75a1.31,1.31,0,0,0-.23-.29l1-1ZM223,9.25h.5l-1.17,1.16a1.68,1.68,0,0,0-.25-.25Zm-8,.67-2.36,2.38A4.32,4.32,0,0,1,215,9.93Zm-2.53,2.9,3.14-3.15c.23-.08.47-.15.7-.21L212.4,13.4C212.42,13.18,212.44,13,212.48,12.83Zm-.1,1V13.8l4.45-4.43.36-.06a3,3,0,0,0-1.31,1.49l-3.47,3.47A2.55,2.55,0,0,1,212.38,13.85Zm.1.79,3.17-3.18a5.23,5.23,0,0,0-.14.66L212.62,15Zm.26.64,2.68-2.67,0,.56-2.45,2.43A3.5,3.5,0,0,1,212.74,15.28Zm.36.55,2.26-2.28v.09c0,.14,0,.3,0,.42l-2.06,2A2.36,2.36,0,0,1,213.11,15.82Zm.43.51,1.87-1.88c0,.16,0,.31,0,.44l-1.64,1.66Zm.47.39,1.5-1.47c0,.14.06.27.08.43L214.3,17C214.2,16.88,214.11,16.8,214,16.72Zm.5.35,1.15-1.15c0,.13.08.26.11.39l-1,.93C214.71,17.19,214.61,17.15,214.51,17.08Zm.57.31.82-.81a2.31,2.31,0,0,0,.17.34l-.65.64A1.9,1.9,0,0,1,215.08,17.39Zm.59.27.54-.52.22.3-.38.35Zm.61.19.3-.27a2.08,2.08,0,0,0,.79.5l.13,0A7.13,7.13,0,0,1,216.28,17.85Zm7.88-3.61-2.48,2.48a1.94,1.94,0,0,0,.08-.58l1.9-1.9Zm-.9,0-1.54,1.56a1.76,1.76,0,0,0-.09-.41l1.16-1.15Zm-.79,0-.93.93a3.18,3.18,0,0,0-.15-.34l.59-.59Zm-1.25.35a1.93,1.93,0,0,0-.31-.35h.66Zm2.62,2.6-.62.09.62-.62Zm0-.87-1.07,1.06-.64.15,1.71-1.71Zm0-.83-2.12,2.13-.63.14L223.84,15Z" />
            <path d="M226.87,9.32h.55l1.14,1.13v6.24l-1.06,1.06h-.63v.33h13V14.64h-1.49l-3.1,3.11h-2.73V13.51h.25l2,2h1.41V11.17h-1.41l-2,2h-.25V9.27h3l2.8,2.81h1.49V9h-13Zm11.55,8.43h-.68l.68-.68Zm0-1.14-1.13,1.14h-.45l1.58-1.58Zm0-1.42v.46l-2.12,2.11h-.46Zm-3.61-.26-.28-.28.28-.3Zm0-1-.49.49-.23-.23.72-.72Zm0-.94-1,1-.23-.23,1.18-1.18Zm0-1.31v.46l-1.38,1.39-.23-.23Zm3.61-.07-.43-.43.43-.42Zm0-1.31-.66.65-.23-.23.89-.88Zm0-1v.16l-1.09,1.09-.23-.23,1-1Zm-.73,0-.81.82-.23-.23.58-.59Zm-.89,0-.36.36-.36-.36Zm-5.69,8.48h-.46l.46-.44Zm0-.88-.88.88h-.45l1.33-1.33Zm0-.9-1.78,1.78h-.45l2.23-2.23Zm0-.88-2.66,2.65H228l3.12-3.11Zm0-1-2.17,2.18v-.46l2.17-2.18Zm0-.91-2.17,2.18V14.9l2.17-2.18Zm0-.93-2.17,2.18V14l2.17-2.16Zm0-.88-2.17,2.18v-.46l2.17-2.19Zm0-1-2.17,2.17v-.46l2.17-2.17Zm0-1.14V9.5l-2.17,2.18v-.46l1.95-2Zm-.68,0-1.49,1.5v-.46l1-1Zm-.88,0-.85.85-.23-.23.61-.63Zm-.89,0-.41.41-.4-.41Z" />
            <polygon points="107.71 2.31 109.53 0.14 110.14 0.14 110.14 5 109.23 5.55 109 5.55 109 5.65 113.11 5.65 113.11 5.55 112.84 5.55 111.97 5.01 111.97 0.14 112.58 0.14 114.39 2.32 114.39 2.52 114.49 2.52 114.49 0 107.61 0 107.61 2.51 107.71 2.51 107.71 2.31" />
            <polygon points="120.01 5.55 119.79 5.55 118.92 5 118.92 2.86 121.68 2.86 121.68 5.01 120.8 5.55 120.61 5.55 120.61 5.65 124.58 5.65 124.58 5.55 124.36 5.55 123.52 5.02 123.52 0.65 124.4 0.1 124.57 0.1 124.57 0 120.61 0 120.61 0.1 120.81 0.1 121.68 0.64 121.68 2.7 118.91 2.7 118.91 0.65 119.8 0.1 120 0.1 120 0 115.99 0 115.99 0.1 116.16 0.1 117.06 0.65 117.06 5.01 116.21 5.55 115.99 5.55 115.99 5.65 120.01 5.65 120.01 5.55" />
            <polygon points="127.15 0.65 127.15 5 126.28 5.55 126.07 5.55 126.07 5.65 132.85 5.65 132.96 3.35 132.89 3.35 132.87 3.53 131.06 5.51 128.98 5.51 128.98 2.78 129.91 2.78 130.99 3.65 130.99 4.09 131.08 4.09 131.08 1.19 130.98 1.19 130.98 1.51 129.89 2.64 128.98 2.64 128.98 0.15 131.05 0.15 132.79 1.92 132.79 2.07 132.87 2.07 132.87 0 126.04 0 126.04 0.1 126.25 0.1 127.15 0.65" />
            <path d="M30.65,26.58a3.54,3.54,0,0,1-.26.54,2.61,2.61,0,0,1-.33.42,3,3,0,0,1-.61.49,2.82,2.82,0,0,1-.74.32,2.56,2.56,0,0,1-1.45,0,1.78,1.78,0,0,1-.56-.3,1.92,1.92,0,0,1-.43-.5,2.4,2.4,0,0,1-.2-.47,4,4,0,0,1-.14-.62,4.29,4.29,0,0,1-.05-.65,2.89,2.89,0,0,1,.64-2.06,1.32,1.32,0,0,1,.47-.31,1.54,1.54,0,0,1,.57-.11,3,3,0,0,1,1.25.31,3.8,3.8,0,0,1,1.14.79,8.25,8.25,0,0,1,.61.72l0,0h.19L30.67,23H30.5l-.11.07-.06,0a4.05,4.05,0,0,1-.54.35.76.76,0,0,1-.32.1.92.92,0,0,1-.41-.15,3.75,3.75,0,0,0-.82-.33,3.49,3.49,0,0,0-.85-.1,3.9,3.9,0,0,0-2.48.82,2.65,2.65,0,0,0-1.17,2.09,2.2,2.2,0,0,0,.68,1.6,4.1,4.1,0,0,0,1.45.92,4.91,4.91,0,0,0,1.77.33,3.45,3.45,0,0,0,2.64-1,2.64,2.64,0,0,0,.35-.46,4.25,4.25,0,0,0,.27-.59l0-.06-.26-.09Z" />
            <polygon points="38.78 28 38.78 23.83 39.59 23.33 39.8 23.33 39.8 23.1 35.84 23.1 35.84 23.33 36.08 23.33 36.88 23.82 36.88 25.72 34.31 25.72 34.31 23.83 35.13 23.33 35.37 23.33 35.37 23.1 31.36 23.1 31.36 23.33 31.57 23.33 32.4 23.83 32.4 27.99 31.62 28.48 31.36 28.48 31.36 28.7 35.38 28.7 35.38 28.48 35.13 28.48 34.32 27.98 34.32 26 36.88 26 36.88 27.99 36.07 28.48 35.83 28.48 35.83 28.7 39.81 28.7 39.81 28.48 39.55 28.48 38.78 28" />
            <polygon points="46.91 26.56 45.19 28.44 43.26 28.44 43.26 25.93 44.09 25.93 45.09 26.74 45.09 27.2 45.3 27.2 45.3 24.25 45.08 24.25 45.08 24.6 44.06 25.66 43.27 25.66 43.27 23.37 45.19 23.37 46.83 25.05 46.83 25.24 47.04 25.24 47.04 23.1 40.3 23.1 40.3 23.33 40.54 23.33 41.37 23.83 41.37 27.98 40.57 28.48 40.32 28.48 40.32 28.7 47.01 28.7 47.12 26.41 47.13 26.35 46.93 26.35 46.91 26.56" />
            <path d="M54.82,26.58a3.54,3.54,0,0,1-.26.54,2.61,2.61,0,0,1-.33.42,3,3,0,0,1-.61.49,2.82,2.82,0,0,1-.74.32,2.56,2.56,0,0,1-1.45,0,1.78,1.78,0,0,1-.56-.3,1.92,1.92,0,0,1-.43-.5,2.4,2.4,0,0,1-.2-.47,4,4,0,0,1-.14-.62,4.29,4.29,0,0,1-.05-.65,2.89,2.89,0,0,1,.64-2.06,1.32,1.32,0,0,1,.47-.31,1.54,1.54,0,0,1,.57-.11,3,3,0,0,1,1.25.31,3.8,3.8,0,0,1,1.14.79,8.25,8.25,0,0,1,.61.72l0,0h.19L54.83,23h-.17l-.11.07-.06,0a4.05,4.05,0,0,1-.54.35.76.76,0,0,1-.32.1.92.92,0,0,1-.41-.15,3.75,3.75,0,0,0-.82-.33,3.49,3.49,0,0,0-.85-.1,3.9,3.9,0,0,0-2.48.82,2.65,2.65,0,0,0-1.17,2.09,2.2,2.2,0,0,0,.68,1.6,4.1,4.1,0,0,0,1.45.92,4.91,4.91,0,0,0,1.77.33,3.45,3.45,0,0,0,2.64-1,2.64,2.64,0,0,0,.35-.46,4.25,4.25,0,0,0,.27-.59l0-.06-.26-.09Z" />
            <polygon points="62.99 27.96 60.41 24.84 61.66 23.84 62.81 23.33 63.04 23.33 63.04 23.1 60.1 23.1 60.1 23.33 60.34 23.33 61.28 23.8 58.49 26.02 58.49 23.81 59.28 23.33 59.53 23.33 59.53 23.1 55.53 23.1 55.53 23.33 55.76 23.33 56.56 23.82 56.56 27.98 55.76 28.48 55.53 28.48 55.53 28.7 59.53 28.7 59.53 28.48 59.31 28.48 58.49 27.98 58.49 26.37 58.94 26.01 60.6 28.01 60.16 28.48 59.93 28.48 59.93 28.7 64.17 28.7 64.17 28.48 63.92 28.48 62.99 27.96" />
            <path d="M70.13,25.49a2.61,2.61,0,0,0-.82-.41A8.54,8.54,0,0,0,68,24.83l-.31,0-.17,0h-.11l-.79-.11a3.32,3.32,0,0,1-.49-.11,1,1,0,0,1-.39-.22.46.46,0,0,1-.17-.35.5.5,0,0,1,.15-.35,1.07,1.07,0,0,1,.45-.26,2.83,2.83,0,0,1,1.48,0,4.46,4.46,0,0,1,.83.3,5,5,0,0,1,.81.48,3.7,3.7,0,0,1,.36.29l.43.43,0,0h.18V23H70.1l-.16.12c-.5.39-.74.48-.86.48a1.1,1.1,0,0,1-.43-.15,3.46,3.46,0,0,0-3-.21,2.2,2.2,0,0,0-.87.68,1.55,1.55,0,0,0-.32.94,1.36,1.36,0,0,0,.17.65,1.7,1.7,0,0,0,.48.54,2.2,2.2,0,0,0,.5.28,3.74,3.74,0,0,0,.7.2c.27.05.62.1,1.06.15h.16l.16,0h0c.33,0,.63.07.89.11a3.86,3.86,0,0,1,.54.12,1.41,1.41,0,0,1,.43.25.59.59,0,0,1,.19.44.68.68,0,0,1-.35.59,1.73,1.73,0,0,1-1,.24,3.77,3.77,0,0,1-.9-.11,4.76,4.76,0,0,1-.92-.33,5.08,5.08,0,0,1-.88-.54,6,6,0,0,1-.89-.83l0,0h-.21v2.13h.2l.17-.12.09-.06.06,0c.24-.17.42-.29.54-.36a.57.57,0,0,1,.26-.09,1.75,1.75,0,0,1,.55.19,6.51,6.51,0,0,0,.69.29,3.94,3.94,0,0,0,.62.16,3.86,3.86,0,0,0,.64,0,3.29,3.29,0,0,0,1.06-.16,2,2,0,0,0,.78-.47,1.85,1.85,0,0,0,.54-1.29A1.61,1.61,0,0,0,70.13,25.49Z" />
            <path d="M82.16,26.62H82l0,0a.58.58,0,0,1-.25.3.87.87,0,0,1-.45.11,1.84,1.84,0,0,1-1.2-.52l0,0,.22-.36a.61.61,0,0,0,.06-.12l0,0,1.14-.55h.28v-.22H79.27v.22h.25l.55.51a3.8,3.8,0,0,1-.23.38l-1.13-1a1.46,1.46,0,0,0,.55-.41,1,1,0,0,0,.24-.66,1.05,1.05,0,0,0-.21-.64,1.38,1.38,0,0,0-.59-.44,2.4,2.4,0,0,0-1.71,0,1.38,1.38,0,0,0-.59.46,1.16,1.16,0,0,0-.21.69,2.1,2.1,0,0,0,.5,1.22,6.16,6.16,0,0,0-.87.07,1.7,1.7,0,0,0-.61.23,1.45,1.45,0,0,0-.53.52,1.41,1.41,0,0,0-.18.71,1.45,1.45,0,0,0,.29.88,1.84,1.84,0,0,0,.8.6,3,3,0,0,0,1.15.21A3.29,3.29,0,0,0,78,28.54a2.94,2.94,0,0,0,.5-.26,3.84,3.84,0,0,0,.45-.38c.18.16.35.29.5.4a2.92,2.92,0,0,0,.46.28,2.15,2.15,0,0,0,.92.21,1.61,1.61,0,0,0,.78-.19,1.38,1.38,0,0,0,.55-.53,1.49,1.49,0,0,0,.19-.75,1.55,1.55,0,0,0-.14-.65ZM78.71,27.7a3,3,0,0,1-.6.44,1.19,1.19,0,0,1-.56.15.94.94,0,0,1-.62-.24,1.77,1.77,0,0,1-.48-.66,2.18,2.18,0,0,1-.18-.88.64.64,0,0,1,.15-.46,1,1,0,0,1,.49-.22l.2.2.48.52L78,27l.42.43Zm-1-3.4a1,1,0,0,1-.25-.57.34.34,0,0,1,.15-.29.65.65,0,0,1,.4-.12,1.33,1.33,0,0,1,.84.27.78.78,0,0,1,.34.64c0,.41-.24.69-.73.87A6.05,6.05,0,0,1,77.72,24.3Z" />
            <path d="M92.69,26.2a2.18,2.18,0,0,0-.54-.23l-.79-.17.64-.12a1.69,1.69,0,0,0,.49-.2,1.91,1.91,0,0,0,.45-.34.76.76,0,0,0,.23-.56A.92.92,0,0,0,93,24a2,2,0,0,0-.64-.47,3.94,3.94,0,0,0-.94-.3,6,6,0,0,0-1.15-.11H85.93v.22h.23l.81.5V28l-.79.49h-.24v.22h4.73a4.68,4.68,0,0,0,1.06-.13,3.23,3.23,0,0,0,.9-.33,1.23,1.23,0,0,0,.74-1.08.86.86,0,0,0-.23-.61A1.89,1.89,0,0,0,92.69,26.2ZM90,23.37a2.21,2.21,0,0,1,.6.07.92.92,0,0,1,.39.21.8.8,0,0,1,.2.35,1.7,1.7,0,0,1,.08.53,1.37,1.37,0,0,1-.23.88.89.89,0,0,1-.73.28H88.87V23.37Zm-1.13,2.57h1.29a1.12,1.12,0,0,1,.85.28,1.52,1.52,0,0,1,.29,1,1.89,1.89,0,0,1-.06.6,1,1,0,0,1-.23.42.87.87,0,0,1-.66.23H88.87Z" />
            <path d="M99.79,23.33h.27l.84,1.27v1.92a1.85,1.85,0,0,1-.17.78,1.87,1.87,0,0,1-.48.63,2.25,2.25,0,0,1-.73.42,2.74,2.74,0,0,1-.91.15,1.76,1.76,0,0,1-1.2-.38,1.33,1.33,0,0,1-.43-1V23.82l.81-.49H98V23.1H94v.22h.23l.82.5v2.48a2.53,2.53,0,0,0,.14.87,1.91,1.91,0,0,0,.44.69,2.87,2.87,0,0,0,1.11.69,4.49,4.49,0,0,0,1.51.24,3.91,3.91,0,0,0,1.55-.28,2.21,2.21,0,0,0,1-.82,2.3,2.3,0,0,0,.35-1.27V24.57l.82-1.24h.26V23.1H99.79Z" />
            <path d="M108.52,25.49a2.61,2.61,0,0,0-.82-.41,8.54,8.54,0,0,0-1.31-.25l-.31,0-.17,0h-.11l-.79-.11a3.32,3.32,0,0,1-.49-.11,1,1,0,0,1-.39-.22A.46.46,0,0,1,104,24a.5.5,0,0,1,.15-.35,1.07,1.07,0,0,1,.45-.26,2.83,2.83,0,0,1,1.48,0,4.46,4.46,0,0,1,.83.3,5,5,0,0,1,.81.48,3.7,3.7,0,0,1,.36.29l.43.43,0,0h.18V23h-.18l-.16.12c-.5.39-.74.48-.86.48a1.1,1.1,0,0,1-.43-.15,3.46,3.46,0,0,0-3-.21,2.2,2.2,0,0,0-.87.68,1.55,1.55,0,0,0-.32.94,1.36,1.36,0,0,0,.17.65,1.7,1.7,0,0,0,.48.54,2.2,2.2,0,0,0,.5.28,3.74,3.74,0,0,0,.7.2c.27.05.62.1,1.06.15h.16l.16,0h0c.33,0,.63.07.89.11a3.86,3.86,0,0,1,.54.12,1.41,1.41,0,0,1,.43.25.59.59,0,0,1,.19.44.68.68,0,0,1-.35.59,1.73,1.73,0,0,1-1,.24,3.77,3.77,0,0,1-.9-.11A4.76,4.76,0,0,1,105,28a5.08,5.08,0,0,1-.88-.54,6,6,0,0,1-.89-.83l0,0H103v2.13h.2l.17-.12.09-.06.06,0c.24-.17.42-.29.54-.36a.57.57,0,0,1,.26-.09,1.75,1.75,0,0,1,.55.19,6.51,6.51,0,0,0,.69.29,3.94,3.94,0,0,0,.62.16,3.86,3.86,0,0,0,.64,0,3.29,3.29,0,0,0,1.06-.16,2,2,0,0,0,.78-.47,1.85,1.85,0,0,0,.54-1.29A1.61,1.61,0,0,0,108.52,25.49Z" />
            <polygon points="109.86 23.33 110.1 23.33 110.91 23.83 110.91 27.98 110.11 28.48 109.87 28.48 109.87 28.7 113.85 28.7 113.85 28.48 113.61 28.48 112.81 27.99 112.81 23.82 113.63 23.33 113.85 23.33 113.85 23.1 109.86 23.1 109.86 23.33" />
            <polygon points="120.34 23.32 120.61 23.32 121.45 24.52 121.45 26.35 117.85 23.51 117.33 23.1 114.31 23.1 114.31 23.32 114.59 23.32 115.59 24.11 115.59 27.25 114.77 28.48 114.52 28.48 114.51 28.7 117 28.7 117 28.48 116.72 28.48 115.87 27.22 115.87 24.32 118.6 26.46 120.75 28.15 121.45 28.7 121.73 28.7 121.73 24.51 122.54 23.32 122.8 23.32 122.81 23.1 120.34 23.1 120.34 23.32" />
            <polygon points="130.03 26.56 128.31 28.44 126.38 28.44 126.38 25.93 127.2 25.93 128.21 26.74 128.21 27.2 128.42 27.2 128.42 24.25 128.2 24.25 128.2 24.6 127.18 25.66 126.39 25.66 126.39 23.37 128.31 23.37 129.95 25.05 129.95 25.24 130.16 25.24 130.16 23.1 123.42 23.1 123.42 23.33 123.66 23.33 124.49 23.83 124.49 27.98 123.69 28.48 123.44 28.48 123.44 28.7 130.13 28.7 130.24 26.41 130.24 26.35 130.05 26.35 130.03 26.56" />
            <path d="M136.44,25.49a2.59,2.59,0,0,0-.82-.41,8.49,8.49,0,0,0-1.31-.25l-.31,0h-.28l-.79-.11a3.29,3.29,0,0,1-.49-.11,1,1,0,0,1-.39-.22.46.46,0,0,1-.17-.35.5.5,0,0,1,.15-.35,1.08,1.08,0,0,1,.45-.26,2.83,2.83,0,0,1,1.48,0,4.38,4.38,0,0,1,.83.3,5,5,0,0,1,.81.48,3.64,3.64,0,0,1,.36.29l.43.43,0,0h.18V23h-.18l-.16.12c-.49.39-.74.48-.86.48a1.1,1.1,0,0,1-.43-.15,4.06,4.06,0,0,0-1.79-.46,2.84,2.84,0,0,0-1.19.25,2.2,2.2,0,0,0-.87.68,1.55,1.55,0,0,0-.32.94,1.37,1.37,0,0,0,.17.66,1.73,1.73,0,0,0,.48.54,2.22,2.22,0,0,0,.5.28,3.7,3.7,0,0,0,.7.2c.27.05.62.1,1.06.15h.16l.16,0c.33,0,.63.07.89.11a3.81,3.81,0,0,1,.54.12,1.38,1.38,0,0,1,.43.25.59.59,0,0,1,.19.44.67.67,0,0,1-.35.59,1.73,1.73,0,0,1-1,.23,3.76,3.76,0,0,1-.9-.11,4.78,4.78,0,0,1-.92-.33,5.15,5.15,0,0,1-.88-.54,6,6,0,0,1-.89-.83l0,0H131v2.13h.2l.17-.12.09-.06h0l0,0c.25-.18.43-.3.54-.36a.57.57,0,0,1,.26-.09,1.71,1.71,0,0,1,.55.19,6.64,6.64,0,0,0,.69.29,3.75,3.75,0,0,0,1.26.21,3.28,3.28,0,0,0,1.06-.16,2,2,0,0,0,.78-.47,1.78,1.78,0,0,0,.39-.59,1.8,1.8,0,0,0,.14-.7A1.61,1.61,0,0,0,136.44,25.49Z" />
            <path d="M143.3,25.49a2.61,2.61,0,0,0-.82-.41,8.54,8.54,0,0,0-1.31-.25l-.48-.07h-.11l-.79-.11a3.35,3.35,0,0,1-.49-.11,1,1,0,0,1-.39-.22.46.46,0,0,1-.17-.35.5.5,0,0,1,.15-.35,1.06,1.06,0,0,1,.45-.26,2.86,2.86,0,0,1,1.48,0,4.37,4.37,0,0,1,.83.3,5.05,5.05,0,0,1,.81.48,3.71,3.71,0,0,1,.36.29l.43.43,0,0h.18V23h-.18l-.16.12c-.5.39-.74.48-.86.48a1.11,1.11,0,0,1-.43-.15,3.45,3.45,0,0,0-3-.21,2.19,2.19,0,0,0-.87.68,1.55,1.55,0,0,0-.32.94,1.36,1.36,0,0,0,.17.65,1.69,1.69,0,0,0,.48.54,2.18,2.18,0,0,0,.5.28,3.69,3.69,0,0,0,.7.2c.27.05.62.1,1.06.15h.16l.16,0h0c.33,0,.63.07.89.11a3.8,3.8,0,0,1,.54.12,1.4,1.4,0,0,1,.43.25.59.59,0,0,1,.19.44.67.67,0,0,1-.35.59,1.73,1.73,0,0,1-1,.24,3.76,3.76,0,0,1-.9-.11,4.78,4.78,0,0,1-.92-.33,5,5,0,0,1-.88-.54,6,6,0,0,1-.89-.83l0,0h-.21v2.13h.2l.17-.12.09-.06.06,0c.24-.17.42-.29.54-.36a.57.57,0,0,1,.26-.09,1.73,1.73,0,0,1,.55.19,6.64,6.64,0,0,0,.69.29,3.91,3.91,0,0,0,.62.16,3.87,3.87,0,0,0,.64,0,3.29,3.29,0,0,0,1.06-.16,2,2,0,0,0,.78-.47,1.85,1.85,0,0,0,.54-1.29A1.61,1.61,0,0,0,143.3,25.49Z" />
            <path d="M153,25.49a2.61,2.61,0,0,0-.82-.41,8.54,8.54,0,0,0-1.31-.25l-.48-.07h-.11l-.79-.11a3.35,3.35,0,0,1-.49-.11,1,1,0,0,1-.39-.22.46.46,0,0,1-.17-.35.5.5,0,0,1,.15-.35,1.06,1.06,0,0,1,.45-.26,2.86,2.86,0,0,1,1.48,0,4.37,4.37,0,0,1,.83.3,5.05,5.05,0,0,1,.81.48,3.71,3.71,0,0,1,.36.29l.43.43,0,0h.18V23H153l-.16.12c-.5.39-.74.48-.86.48a1.11,1.11,0,0,1-.43-.15,3.45,3.45,0,0,0-3-.21,2.19,2.19,0,0,0-.87.68,1.55,1.55,0,0,0-.32.94,1.36,1.36,0,0,0,.17.65A1.69,1.69,0,0,0,148,26a2.18,2.18,0,0,0,.5.28,3.69,3.69,0,0,0,.7.2c.27.05.62.1,1.06.15h.16l.16,0h0c.33,0,.63.07.89.11a3.8,3.8,0,0,1,.54.12,1.4,1.4,0,0,1,.43.25.59.59,0,0,1,.19.44.67.67,0,0,1-.35.59,1.73,1.73,0,0,1-1,.24,3.76,3.76,0,0,1-.9-.11,4.78,4.78,0,0,1-.92-.33,5,5,0,0,1-.88-.54,6,6,0,0,1-.89-.83l0,0h-.21v2.13h.2l.17-.12.09-.06.06,0c.24-.17.42-.29.54-.36a.57.57,0,0,1,.26-.09,1.73,1.73,0,0,1,.55.19,6.64,6.64,0,0,0,.69.29,3.91,3.91,0,0,0,.62.16,3.87,3.87,0,0,0,.64,0,3.29,3.29,0,0,0,1.06-.16,2,2,0,0,0,.78-.47,1.85,1.85,0,0,0,.54-1.29A1.61,1.61,0,0,0,153,25.49Z" />
            <path d="M161.52,24.16a3.75,3.75,0,0,0-1.39-.87,5.22,5.22,0,0,0-1.79-.3,4.54,4.54,0,0,0-1.44.23,4.24,4.24,0,0,0-1.23.64,3.21,3.21,0,0,0-.84.94,2.19,2.19,0,0,0-.31,1.11,2.25,2.25,0,0,0,.53,1.43,3.65,3.65,0,0,0,1.43,1,4.79,4.79,0,0,0,1.92.39,4.88,4.88,0,0,0,1.94-.39,3.61,3.61,0,0,0,1.43-1.05,2.31,2.31,0,0,0,.53-1.46,2.15,2.15,0,0,0-.2-.9A2.74,2.74,0,0,0,161.52,24.16Zm-3.07,4.32a1.81,1.81,0,0,1-1.22-.35,1.44,1.44,0,0,1-.47-.82,4.44,4.44,0,0,1-.07-.57c0-.23,0-.43,0-.61,0-.33,0-.65,0-.94a5.87,5.87,0,0,1,.09-.71,2,2,0,0,1,.21-.56,1.18,1.18,0,0,1,.54-.48,2.32,2.32,0,0,1,.93-.16,1.92,1.92,0,0,1,1,.23,1.3,1.3,0,0,1,.53.74,5,5,0,0,1,.17,1.44c0,.32,0,.63,0,.92a5,5,0,0,1-.08.66,1.8,1.8,0,0,1-.21.54,1.23,1.23,0,0,1-.54.49A2,2,0,0,1,158.45,28.47Z" />
            <polygon points="169.76 26.66 167.65 28.43 166.15 28.43 166.15 23.84 167 23.33 167.22 23.33 167.22 23.1 163.22 23.1 163.22 23.33 163.46 23.33 164.25 23.8 164.25 27.98 163.43 28.48 163.2 28.48 163.2 28.7 169.85 28.7 169.99 26.43 169.78 26.43 169.76 26.66" />
            <path d="M176.42,23.33h.27l.84,1.27v1.92a1.84,1.84,0,0,1-.17.78,1.87,1.87,0,0,1-.48.63,2.24,2.24,0,0,1-.73.42,2.75,2.75,0,0,1-.91.15,1.76,1.76,0,0,1-1.2-.38,1.33,1.33,0,0,1-.43-1V23.82l.81-.49h.25V23.1h-4v.22h.23l.82.5v2.48a2.53,2.53,0,0,0,.14.87,1.91,1.91,0,0,0,.44.69,2.87,2.87,0,0,0,1.11.69,4.49,4.49,0,0,0,1.51.24,3.9,3.9,0,0,0,1.55-.28,2.21,2.21,0,0,0,1-.82,2.3,2.3,0,0,0,.35-1.27V24.57l.82-1.24h.26V23.1h-2.47Z" />
            <polygon points="179.72 25.66 179.94 25.66 179.94 25.42 181.67 23.37 182.17 23.37 182.17 27.97 181.33 28.48 181.06 28.48 181.06 28.7 185.17 28.7 185.17 28.48 184.87 28.48 184.07 27.99 184.07 23.37 184.56 23.37 186.29 25.44 186.29 25.67 186.51 25.67 186.51 23.1 179.72 23.1 179.72 25.66" />
            <polygon points="187.5 23.33 187.74 23.33 188.55 23.83 188.55 27.98 187.74 28.48 187.51 28.48 187.51 28.7 191.48 28.7 191.48 28.48 191.25 28.48 190.45 27.99 190.45 23.82 191.26 23.33 191.48 23.33 191.48 23.1 187.5 23.1 187.5 23.33" />
            <path d="M199.4,24.16a3.75,3.75,0,0,0-1.39-.87,5.22,5.22,0,0,0-1.79-.3,4.54,4.54,0,0,0-1.44.23,4.24,4.24,0,0,0-1.23.64,3.21,3.21,0,0,0-.84.94,2.19,2.19,0,0,0-.31,1.11,2.25,2.25,0,0,0,.53,1.43,3.65,3.65,0,0,0,1.43,1,4.79,4.79,0,0,0,1.92.39,4.88,4.88,0,0,0,1.94-.39,3.61,3.61,0,0,0,1.43-1.05,2.31,2.31,0,0,0,.53-1.46,2.15,2.15,0,0,0-.2-.9A2.74,2.74,0,0,0,199.4,24.16Zm-3.07,4.32a1.81,1.81,0,0,1-1.22-.35,1.44,1.44,0,0,1-.47-.82,4.44,4.44,0,0,1-.07-.57c0-.23,0-.43,0-.61,0-.33,0-.65,0-.94a5.87,5.87,0,0,1,.09-.71,2,2,0,0,1,.21-.56,1.18,1.18,0,0,1,.54-.48,2.32,2.32,0,0,1,.93-.16,1.92,1.92,0,0,1,1,.23,1.3,1.3,0,0,1,.53.74,5,5,0,0,1,.17,1.44c0,.32,0,.63,0,.92a5,5,0,0,1-.08.66,1.8,1.8,0,0,1-.21.54,1.23,1.23,0,0,1-.54.49A2,2,0,0,1,196.33,28.47Z" />
            <polygon points="206.93 23.32 207.19 23.32 208.04 24.52 208.04 26.35 206.03 24.76 203.93 23.12 203.91 23.1 200.9 23.1 200.9 23.32 201.18 23.32 202.18 24.11 202.18 27.25 201.36 28.48 201.1 28.48 201.09 28.7 203.58 28.7 203.58 28.48 203.31 28.48 202.46 27.22 202.46 24.32 205.19 26.46 207.33 28.15 208.04 28.7 208.32 28.7 208.32 24.51 209.12 23.32 209.39 23.32 209.4 23.1 206.93 23.1 206.93 23.32" />
            <path d="M215.67,25.49a2.61,2.61,0,0,0-.82-.41,8.54,8.54,0,0,0-1.31-.25l-.48-.07H213l-.79-.11a3.35,3.35,0,0,1-.49-.11,1,1,0,0,1-.39-.22.46.46,0,0,1-.17-.35.5.5,0,0,1,.15-.35,1.06,1.06,0,0,1,.45-.26,2.86,2.86,0,0,1,1.48,0,4.37,4.37,0,0,1,.83.3,5.05,5.05,0,0,1,.81.48,3.71,3.71,0,0,1,.36.29l.43.43,0,0h.18V23h-.18l-.16.12c-.5.39-.74.48-.86.48a1.11,1.11,0,0,1-.43-.15,3.45,3.45,0,0,0-3-.21,2.19,2.19,0,0,0-.87.68,1.55,1.55,0,0,0-.32.94,1.36,1.36,0,0,0,.17.65,1.69,1.69,0,0,0,.48.54,2.18,2.18,0,0,0,.5.28,3.69,3.69,0,0,0,.7.2c.27.05.62.1,1.06.15h.16l.16,0h0c.33,0,.63.07.89.11a3.8,3.8,0,0,1,.54.12,1.4,1.4,0,0,1,.43.25.59.59,0,0,1,.19.44.67.67,0,0,1-.35.59,1.73,1.73,0,0,1-1,.24,3.76,3.76,0,0,1-.9-.11,4.78,4.78,0,0,1-.92-.33,5,5,0,0,1-.88-.54,6,6,0,0,1-.89-.83l0,0h-.21v2.13h.2l.17-.12.09-.06.06,0c.24-.17.42-.29.54-.36a.57.57,0,0,1,.26-.09,1.73,1.73,0,0,1,.55.19,6.64,6.64,0,0,0,.69.29,3.91,3.91,0,0,0,.62.16,3.87,3.87,0,0,0,.64,0,3.29,3.29,0,0,0,1.06-.16,2,2,0,0,0,.78-.47,1.85,1.85,0,0,0,.54-1.29A1.61,1.61,0,0,0,215.67,25.49Z" />
            <path d="M20.57,24.53a2.53,2.53,0,0,1-.73.26l-9,1.29h0l8.83-1v1H10.92l8.92,1.28a2.47,2.47,0,0,1,.73.26,2.37,2.37,0,0,1-.14-.41V24.94A2.37,2.37,0,0,1,20.57,24.53Z" />
            <path d="M220.52,24.53a2.13,2.13,0,0,1,.14.41v2.27a2.13,2.13,0,0,1-.14.41,2.46,2.46,0,0,1,.73-.26l8.92-1.28h-8.81v-1l8.83,1h0l-9-1.29A2.51,2.51,0,0,1,220.52,24.53Z" />
        </g>
    </g>
</svg>